<?xml version="1.0" encoding="UTF-8" standalone="no"?>
<!DOCTYPE svg PUBLIC "-//W3C//DTD SVG 1.1//EN"
 "http://www.w3.org/Graphics/SVG/1.1/DTD/svg11.dtd">
<!-- Generated by graphviz version 8.1.0 (20230707.0739)
 -->
<!-- Title: G Pages: 1 -->
<svg width="462pt" height="657pt"
 viewBox="0.00 0.00 462.00 657.00" xmlns="http://www.w3.org/2000/svg" xmlns:xlink="http://www.w3.org/1999/xlink">
<g id="graph0" class="graph" transform="scale(1 1) rotate(0) translate(4 653)">
<title>G</title>
<polygon fill="white" stroke="none" points="-4,4 -4,-653 458,-653 458,4 -4,4"/>
<!-- A -->
<g id="node1" class="node">
<title>A</title>
<polygon fill="none" stroke="black" points="239.62,-649 177.88,-649 177.88,-613 239.62,-613 239.62,-649"/>
<text text-anchor="middle" x="208.75" y="-625.95" font-family="Times,serif" font-size="14.00">Flat File</text>
</g>
<!-- B -->
<g id="node2" class="node">
<title>B</title>
<polygon fill="none" stroke="black" points="262.12,-560.5 155.38,-560.5 155.38,-524.5 262.12,-524.5 262.12,-560.5"/>
<text text-anchor="middle" x="208.75" y="-537.45" font-family="Times,serif" font-size="14.00">DataFrame as df</text>
</g>
<!-- A&#45;&gt;B -->
<g id="edge1" class="edge">
<title>A&#45;&gt;B</title>
<path fill="none" stroke="black" d="M208.75,-612.91C208.75,-601.14 208.75,-585.23 208.75,-571.61"/>
<polygon fill="black" stroke="black" points="212.25,-571.85 208.75,-561.85 205.25,-571.85 212.25,-571.85"/>
<text text-anchor="middle" x="264.62" y="-581.7" font-family="Times,serif" font-size="14.00">import using Pandas</text>
</g>
<!-- C -->
<g id="node3" class="node">
<title>C</title>
<polygon fill="none" stroke="black" points="291.75,-487.5 125.75,-487.5 125.75,-451.5 291.75,-451.5 291.75,-487.5"/>
<text text-anchor="middle" x="208.75" y="-464.45" font-family="Times,serif" font-size="14.00">Clean names in df.columns</text>
</g>
<!-- B&#45;&gt;C -->
<g id="edge2" class="edge">
<title>B&#45;&gt;C</title>
<path fill="none" stroke="black" d="M208.75,-524.31C208.75,-516.55 208.75,-507.18 208.75,-498.45"/>
<polygon fill="black" stroke="black" points="212.25,-498.53 208.75,-488.53 205.25,-498.53 212.25,-498.53"/>
</g>
<!-- D -->
<g id="node4" class="node">
<title>D</title>
<polygon fill="none" stroke="black" points="278.25,-399 139.25,-399 139.25,-358 278.25,-358 278.25,-399"/>
<text text-anchor="middle" x="208.75" y="-381.7" font-family="Times,serif" font-size="14.00">Only keep column</text>
<text text-anchor="middle" x="208.75" y="-365.2" font-family="Times,serif" font-size="14.00">&#39;bahnhof_kurzel_karte&#39;</text>
</g>
<!-- C&#45;&gt;D -->
<g id="edge3" class="edge">
<title>C&#45;&gt;D</title>
<path fill="none" stroke="black" d="M208.75,-451.34C208.75,-439.74 208.75,-424.09 208.75,-410.36"/>
<polygon fill="black" stroke="black" points="212.25,-410.4 208.75,-400.4 205.25,-410.4 212.25,-410.4"/>
<text text-anchor="middle" x="255.62" y="-420.2" font-family="Times,serif" font-size="14.00">Extract GPS data</text>
</g>
<!-- E -->
<g id="node5" class="node">
<title>E</title>
<polygon fill="none" stroke="black" points="319.12,-321 98.38,-321 98.38,-285 319.12,-285 319.12,-321"/>
<text text-anchor="middle" x="208.75" y="-297.95" font-family="Times,serif" font-size="14.00">Split string data in remaining column</text>
</g>
<!-- D&#45;&gt;E -->
<g id="edge4" class="edge">
<title>D&#45;&gt;E</title>
<path fill="none" stroke="black" d="M208.75,-357.8C208.75,-349.88 208.75,-340.6 208.75,-331.99"/>
<polygon fill="black" stroke="black" points="212.25,-332.25 208.75,-322.25 205.25,-332.25 212.25,-332.25"/>
</g>
<!-- F -->
<g id="node6" class="node">
<title>F</title>
<polygon fill="none" stroke="black" points="164.62,-178.5 60.88,-178.5 60.88,-142.5 164.62,-142.5 164.62,-178.5"/>
<text text-anchor="middle" x="112.75" y="-155.45" font-family="Times,serif" font-size="14.00">Name of station</text>
</g>
<!-- E&#45;&gt;F -->
<g id="edge5" class="edge">
<title>E&#45;&gt;F</title>
<path fill="none" stroke="black" d="M172.78,-284.67C165.24,-279.77 157.89,-273.87 152.25,-267 133.78,-244.5 123.44,-212.49 118.01,-189.65"/>
<polygon fill="black" stroke="black" points="121.22,-188.96 115.67,-179.94 114.39,-190.46 121.22,-188.96"/>
<text text-anchor="middle" x="195.5" y="-253.7" font-family="Times,serif" font-size="14.00">Save to column</text>
</g>
<!-- G -->
<g id="node7" class="node">
<title>G</title>
<polygon fill="none" stroke="black" points="365.5,-232.5 204,-232.5 204,-196.5 365.5,-196.5 365.5,-232.5"/>
<text text-anchor="middle" x="284.75" y="-209.45" font-family="Times,serif" font-size="14.00">gps values in format DMS</text>
</g>
<!-- E&#45;&gt;G -->
<g id="edge6" class="edge">
<title>E&#45;&gt;G</title>
<path fill="none" stroke="black" d="M225.41,-284.75C230.71,-279.15 236.54,-272.87 241.75,-267 249.09,-258.72 256.91,-249.5 263.83,-241.17"/>
<polygon fill="black" stroke="black" points="267,-243.83 270.67,-233.89 261.61,-239.37 267,-243.83"/>
<text text-anchor="middle" x="297.5" y="-253.7" font-family="Times,serif" font-size="14.00">Save to column</text>
</g>
<!-- I -->
<g id="node9" class="node">
<title>I</title>
<polygon fill="none" stroke="black" points="89.5,-36 0,-36 0,0 89.5,0 89.5,-36"/>
<text text-anchor="middle" x="44.75" y="-12.95" font-family="Times,serif" font-size="14.00">Export as csv</text>
</g>
<!-- F&#45;&gt;I -->
<g id="edge8" class="edge">
<title>F&#45;&gt;I</title>
<path fill="none" stroke="black" d="M60.7,-145.07C51.31,-140.08 42.7,-133.41 37,-124.5 22.2,-101.36 27.34,-69.26 34.17,-46.56"/>
<polygon fill="black" stroke="black" points="37.76,-47.85 37.57,-37.25 31.11,-45.65 37.76,-47.85"/>
<text text-anchor="middle" x="113.12" y="-101.45" font-family="Times,serif" font-size="14.00">Export for Feature Creation</text>
</g>
<!-- H -->
<g id="node8" class="node">
<title>H</title>
<polygon fill="none" stroke="black" points="416.38,-124.5 197.12,-124.5 197.12,-88.5 416.38,-88.5 416.38,-124.5"/>
<text text-anchor="middle" x="306.75" y="-101.45" font-family="Times,serif" font-size="14.00">gps data is compatible with core data</text>
</g>
<!-- G&#45;&gt;H -->
<g id="edge7" class="edge">
<title>G&#45;&gt;H</title>
<path fill="none" stroke="black" d="M288.28,-196.47C291.7,-180.03 296.92,-154.85 300.94,-135.47"/>
<polygon fill="black" stroke="black" points="304.55,-136.34 303.15,-125.84 297.69,-134.92 304.55,-136.34"/>
<text text-anchor="middle" x="376.38" y="-155.45" font-family="Times,serif" font-size="14.00">Convert DMS format to DD</text>
</g>
<!-- H&#45;&gt;I -->
<g id="edge9" class="edge">
<title>H&#45;&gt;I</title>
<path fill="none" stroke="black" d="M254.05,-88.1C209.41,-73.36 145.61,-52.3 100.2,-37.31"/>
<polygon fill="black" stroke="black" points="101.54,-33.73 90.95,-33.92 99.35,-40.38 101.54,-33.73"/>
<text text-anchor="middle" x="275.12" y="-57.2" font-family="Times,serif" font-size="14.00">Export for Feature Creation</text>
</g>
</g>
</svg>
